<svg xmlns="http://www.w3.org/2000/svg" viewBox="0 0 64 64" role="img" aria-label="Ji Ke Ying Xiang">
  <rect width="64" height="64" rx="14" fill="#101816"/>
  <path d="M14 18c0-2.2 1.8-4 4-4h28c2.2 0 4 1.8 4 4v28c0 2.2-1.8 4-4 4H18c-2.2 0-4-1.8-4-4V18Z" fill="#176b5a"/>
  <path d="M20 23c0-1.7 1.3-3 3-3h18c1.7 0 3 1.3 3 3v18c0 1.7-1.3 3-3 3H23c-1.7 0-3-1.3-3-3V23Z" fill="#f0c45a"/>
  <path d="M28 25v14l12-7-12-7Z" fill="#101816"/>
  <path d="M45 10l1.8 5.2L52 17l-5.2 1.8L45 24l-1.8-5.2L38 17l5.2-1.8L45 10Z" fill="#f7df8a"/>
</svg>
